<?xml version="1.0" encoding="utf-8"?>
<!-- Generator: Adobe Illustrator 22.0.1, SVG Export Plug-In . SVG Version: 6.00 Build 0)  -->
<svg version="1.1" xmlns="http://www.w3.org/2000/svg" xmlns:xlink="http://www.w3.org/1999/xlink" x="0px" y="0px"
	 width="33.8863px" height="22.1348px" viewBox="0 0 33.8863 22.1348" enable-background="new 0 0 33.8863 22.1348"
	 xml:space="preserve">
<g id="Layer_1" display="none">
	<g display="inline">
		<path opacity="0.2" enable-background="new    " d="M23.64,21.591H10.2464c-5.2754,0-9.5669-4.292-9.5669-9.5669
			c0-5.2754,4.2915-9.5669,9.5669-9.5669H23.64c5.2749,0,9.5669,4.2915,9.5669,9.5669C33.2068,17.299,28.9149,21.591,23.64,21.591z"
			/>
		<path fill="#363636" d="M10.4433,0.8252H23.443c5.1283,0,9.2855,4.1573,9.2855,9.2855l0,0c0,5.1282-4.1572,9.2855-9.2855,9.2855
			H10.4433c-5.1282,0-9.2855-4.1573-9.2855-9.2855l0,0C1.1578,4.9825,5.3151,0.8252,10.4433,0.8252z"/>
		<path fill="#FFFFFF" d="M23.64,19.6776H10.2464c-5.2754,0-9.5669-4.292-9.5669-9.5669c0-5.2754,4.2915-9.5669,9.5669-9.5669H23.64
			c5.2749,0,9.5669,4.2915,9.5669,9.5669C33.2068,15.3856,28.9149,19.6776,23.64,19.6776z M10.2464,1.9789
			c-4.484,0-8.1318,3.6478-8.1318,8.1318c0,4.4835,3.6478,8.1318,8.1318,8.1318H23.64c4.4835,0,8.1318-3.6483,8.1318-8.1318
			c0-4.484-3.6483-8.1318-8.1318-8.1318C23.64,1.9789,10.2464,1.9789,10.2464,1.9789z"/>
		<path fill="#FFFFFF" d="M5.6792,12.9849l3.9336-3.9336L7.4832,6.9216l6.5241-0.4913l-0.4358,6.5795l-2.1772-2.1772l-3.9336,3.9336
			L5.6792,12.9849z"/>
	</g>
</g>
<g id="Layer_2">
	<g>
		<path opacity="0.2" enable-background="new    " d="M23.64,21.591H10.2464c-5.2754,0-9.5669-4.292-9.5669-9.5669
			c0-5.2754,4.2915-9.5669,9.5669-9.5669H23.64c5.2749,0,9.5669,4.2915,9.5669,9.5669C33.2068,17.299,28.9149,21.591,23.64,21.591z"
			/>
		<path fill="#FFFFFF" d="M10.4433,0.8252H23.443c5.1283,0,9.2855,4.1573,9.2855,9.2855l0,0c0,5.1282-4.1572,9.2855-9.2855,9.2855
			H10.4433c-5.1282,0-9.2855-4.1573-9.2855-9.2855l0,0C1.1578,4.9825,5.3151,0.8252,10.4433,0.8252z"/>
		<path fill="#363636" d="M23.64,19.6776H10.2464c-5.2754,0-9.5669-4.292-9.5669-9.5669c0-5.2754,4.2915-9.5669,9.5669-9.5669H23.64
			c5.2749,0,9.5669,4.2915,9.5669,9.5669C33.2068,15.3856,28.9149,19.6776,23.64,19.6776z M10.2464,1.9789
			c-4.484,0-8.1318,3.6478-8.1318,8.1318c0,4.4835,3.6478,8.1318,8.1318,8.1318H23.64c4.4835,0,8.1318-3.6483,8.1318-8.1318
			c0-4.484-3.6483-8.1318-8.1318-8.1318C23.64,1.9789,10.2464,1.9789,10.2464,1.9789z"/>
		<path fill="#363636" d="M14.9494,7.3725l-3.9336,3.9336l2.1297,2.1297L6.6214,13.927l0.4358-6.5795l2.1772,2.1772l3.9336-3.9336
			L14.9494,7.3725z"/>
	</g>
</g>
</svg>
